<?xml version="1.0" encoding="UTF-8"?>
<!DOCTYPE svg PUBLIC "-//W3C//DTD SVG 1.1//EN" "http://www.w3.org/Graphics/SVG/1.1/DTD/svg11.dtd">
<svg xmlns="http://www.w3.org/2000/svg" version="1.1" width="306px" height="287px" style="shape-rendering:geometricPrecision; text-rendering:geometricPrecision; image-rendering:optimizeQuality; fill-rule:evenodd; clip-rule:evenodd" xmlns:xlink="http://www.w3.org/1999/xlink">
<g><path style="opacity:1" fill="#1f2937" d="M -0.5,-0.5 C 101.5,-0.5 203.5,-0.5 305.5,-0.5C 305.5,95.1667 305.5,190.833 305.5,286.5C 203.5,286.5 101.5,286.5 -0.5,286.5C -0.5,190.833 -0.5,95.1667 -0.5,-0.5 Z"/></g>
<g><path style="opacity:1" fill="#2b3338" d="M 187.5,58.5 C 191.973,64.0904 195.973,70.0904 199.5,76.5C 204.317,77.1669 208.983,77.8335 213.5,78.5C 209.486,78.3345 205.486,78.5012 201.5,79C 213.167,79.3333 224.833,79.6667 236.5,80C 238.154,80.6077 239.821,81.1077 241.5,81.5C 245.884,83.3935 248.718,86.7269 250,91.5C 250.667,128.167 250.667,164.833 250,201.5C 246.71,210.569 240.21,215.403 230.5,216C 178.833,216.667 127.167,216.667 75.5,216C 66.0622,212.543 61.2289,205.71 61,195.5C 60.3333,161.5 60.3333,127.5 61,93.5C 62.7361,86.7634 66.9028,82.2634 73.5,80C 85.7632,78.7266 98.0966,78.06 110.5,78C 112.488,74.4987 114.822,71.332 117.5,68.5C 119.474,66.572 120.974,64.2387 122,61.5C 123.873,59.2911 126.04,57.4578 128.5,56C 144.874,55.5709 160.207,55.0709 174.5,54.5C 179.133,55.0864 183.466,56.4198 187.5,58.5 Z"/></g>
<g><path style="opacity:1" fill="#1a1f25" d="M 187.5,58.5 C 183.466,56.4198 179.133,55.0864 174.5,54.5C 160.207,55.0709 144.874,55.5709 128.5,56C 126.04,57.4578 123.873,59.2911 122,61.5C 120.974,64.2387 119.474,66.572 117.5,68.5C 119.12,61.7116 123.12,56.8783 129.5,54C 147.544,53.069 165.544,53.4023 183.5,55C 185.324,55.66 186.657,56.8267 187.5,58.5 Z"/></g>
<g><path style="opacity:1" fill="#ef2b1d" d="M 27.5,38.5 C 28.4968,56.6591 28.8302,74.9924 28.5,93.5C 33.1667,93.5 37.8333,93.5 42.5,93.5C 42.3334,76.4967 42.5001,59.4967 43,42.5C 43.3333,41.8333 43.6667,41.1667 44,40.5C 44.3988,40.7284 44.5654,41.0618 44.5,41.5C 43.5266,59.4532 43.1932,77.4532 43.5,95.5C 37.8333,95.5 32.1667,95.5 26.5,95.5C 26.2044,76.4661 26.5377,57.4661 27.5,38.5 Z"/></g>
<g><path style="opacity:1" fill="#ee1209" d="M 277.5,27.5 C 280.661,30.475 282.828,34.1417 284,38.5C 284.5,57.4971 284.667,76.4971 284.5,95.5C 279.167,95.5 273.833,95.5 268.5,95.5C 268.5,79.1667 268.5,62.8333 268.5,46.5C 269.505,60.1295 269.838,75.7961 269.5,93.5C 274.167,93.5 278.833,93.5 283.5,93.5C 283.667,76.1635 283.5,58.8301 283,41.5C 281.973,36.4562 280.139,31.7895 277.5,27.5 Z"/></g>
<g><path style="opacity:1" fill="#ef2216" d="M 276.5,26.5 C 272.932,23.8849 268.932,22.0516 264.5,21C 244.5,20.3333 224.5,20.3333 204.5,21C 205.684,24.9655 205.684,28.9655 204.5,33C 223.167,33.3333 241.833,33.6667 260.5,34C 263.115,34.6119 264.781,36.1119 265.5,38.5C 263.473,36.8196 261.139,35.6529 258.5,35C 240.17,34.5001 221.836,34.3334 203.5,34.5C 203.5,29.1667 203.5,23.8333 203.5,18.5C 223.169,18.3334 242.836,18.5 262.5,19C 268.239,19.7 272.906,22.2 276.5,26.5 Z"/></g>
<g><path style="opacity:1" fill="#f03a30" d="M 46.5,38.5 C 46.0679,39.7095 45.4013,40.7095 44.5,41.5C 44.5654,41.0618 44.3988,40.7284 44,40.5C 43.6667,41.1667 43.3333,41.8333 43,42.5C 42.5001,59.4967 42.3334,76.4967 42.5,93.5C 37.8333,93.5 33.1667,93.5 28.5,93.5C 28.8302,74.9924 28.4968,56.6591 27.5,38.5C 28.7903,32.8991 31.7903,28.5658 36.5,25.5C 39.6626,23.7545 42.996,22.2545 46.5,21C 66.4972,20.5 86.4972,20.3334 106.5,20.5C 106.5,24.8333 106.5,29.1667 106.5,33.5C 88.4969,33.3334 70.4969,33.5001 52.5,34C 49.71,34.5609 47.3766,35.8942 45.5,38C 45.7284,38.3988 46.0618,38.5654 46.5,38.5 Z"/></g>
<g><path style="opacity:1" fill="#f03a30" d="M 276.5,26.5 C 277.167,26.5 277.5,26.8333 277.5,27.5C 280.139,31.7895 281.973,36.4562 283,41.5C 283.5,58.8301 283.667,76.1635 283.5,93.5C 278.833,93.5 274.167,93.5 269.5,93.5C 269.838,75.7961 269.505,60.1295 268.5,46.5C 267.752,43.8298 266.752,41.1631 265.5,38.5C 264.781,36.1119 263.115,34.6119 260.5,34C 241.833,33.6667 223.167,33.3333 204.5,33C 205.684,28.9655 205.684,24.9655 204.5,21C 224.5,20.3333 244.5,20.3333 264.5,21C 268.932,22.0516 272.932,23.8849 276.5,26.5 Z"/></g>
<g><path style="opacity:1" fill="#ef2317" d="M 46.5,38.5 C 46.0618,38.5654 45.7284,38.3988 45.5,38C 47.3766,35.8942 49.71,34.5609 52.5,34C 70.4969,33.5001 88.4969,33.3334 106.5,33.5C 106.5,29.1667 106.5,24.8333 106.5,20.5C 86.4972,20.3334 66.4972,20.5 46.5,21C 42.996,22.2545 39.6626,23.7545 36.5,25.5C 39.701,22.0626 43.701,19.8959 48.5,19C 68.1638,18.5 87.8305,18.3334 107.5,18.5C 107.5,23.8333 107.5,29.1667 107.5,34.5C 89.8302,34.3334 72.1635,34.5001 54.5,35C 51.4349,35.3683 48.7682,36.535 46.5,38.5 Z"/></g>
<g><path style="opacity:1" fill="#07090c" d="M 213.5,78.5 C 221.507,78.3336 229.507,78.5003 237.5,79C 239.32,79.2004 240.653,80.0337 241.5,81.5C 239.821,81.1077 238.154,80.6077 236.5,80C 224.833,79.6667 213.167,79.3333 201.5,79C 205.486,78.5012 209.486,78.3345 213.5,78.5 Z"/></g>
<g><path style="opacity:1" fill="#f6f6f7" d="M 147.5,85.5 C 182.136,84.372 203.969,100.372 213,133.5C 216.063,169.565 200.23,192.398 165.5,202C 135.299,204.988 113.799,192.821 101,165.5C 92.0488,135.684 100.216,111.851 125.5,94C 132.618,90.2449 139.951,87.4115 147.5,85.5 Z"/></g>
<g><path style="opacity:1" fill="#3469a9" d="M 145.5,104.5 C 169.628,100.804 186.128,110.137 195,132.5C 199.516,156.979 190.349,173.812 167.5,183C 150.521,187.339 136.021,183.172 124,170.5C 113.514,154.568 112.847,138.235 122,121.5C 128.055,113.265 135.888,107.598 145.5,104.5 Z"/></g>
<g><path style="opacity:1" fill="#f7f7f8" d="M 150.5,122.5 C 168.347,121.518 177.181,129.851 177,147.5C 171.917,164.291 161.084,169.791 144.5,164C 130.181,151.844 129.848,139.177 143.5,126C 145.925,124.787 148.259,123.621 150.5,122.5 Z"/></g>
<g><path style="opacity:1" fill="#f0392f" d="M 284.5,245.5 C 283.469,250.564 281.135,254.898 277.5,258.5C 273.768,261.699 269.435,263.866 264.5,265C 244.5,265.667 224.5,265.667 204.5,265C 205.464,260.934 205.797,256.767 205.5,252.5C 223.972,252.219 241.306,252.219 257.5,252.5C 263.243,251.922 267.076,248.922 269,243.5C 269.5,226.17 269.667,208.837 269.5,191.5C 274.001,191.8 278.667,191.8 283.5,191.5C 283.17,209.674 283.503,227.674 284.5,245.5 Z"/></g>
<g><path style="opacity:1" fill="#f0382e" d="M 48.5,249.5 C 47.2617,249.81 47.2617,250.31 48.5,251C 49.8721,251.402 51.2054,251.902 52.5,252.5C 70.7973,252.434 88.7973,252.434 106.5,252.5C 106.251,256.62 106.251,260.62 106.5,264.5C 86.3374,265.167 66.3374,265.833 46.5,266.5C 37.3166,264.151 31.1499,258.484 28,249.5C 26.5776,230.207 26.0776,210.874 26.5,191.5C 32.1667,191.5 37.8333,191.5 43.5,191.5C 43.3334,209.17 43.5001,226.836 44,244.5C 45.0591,246.659 46.5591,248.326 48.5,249.5 Z"/></g>
<g><path style="opacity:1" fill="#ef2016" d="M 284.5,245.5 C 283.503,227.674 283.17,209.674 283.5,191.5C 278.667,191.8 274.001,191.8 269.5,191.5C 269.667,208.837 269.5,226.17 269,243.5C 267.076,248.922 263.243,251.922 257.5,252.5C 241.306,252.219 223.972,252.219 205.5,252.5C 205.797,256.767 205.464,260.934 204.5,265C 224.5,265.667 244.5,265.667 264.5,265C 269.435,263.866 273.768,261.699 277.5,258.5C 272.989,264.253 266.989,267.087 259.5,267C 240.836,267.5 222.17,267.667 203.5,267.5C 203.5,261.833 203.5,256.167 203.5,250.5C 223.592,250.976 243.592,250.476 263.5,249C 265.617,247.269 267.117,245.102 268,242.5C 268.5,225.17 268.667,207.837 268.5,190.5C 273.833,190.5 279.167,190.5 284.5,190.5C 284.5,208.833 284.5,227.167 284.5,245.5 Z"/></g>
<g><path style="opacity:1" fill="#ef2419" d="M 48.5,249.5 C 68.0907,250.487 87.7574,250.821 107.5,250.5C 107.5,256.167 107.5,261.833 107.5,267.5C 87.0909,267.821 66.7576,267.488 46.5,266.5C 66.3374,265.833 86.3374,265.167 106.5,264.5C 106.251,260.62 106.251,256.62 106.5,252.5C 88.7973,252.434 70.7973,252.434 52.5,252.5C 51.2054,251.902 49.8721,251.402 48.5,251C 47.2617,250.31 47.2617,249.81 48.5,249.5 Z"/></g>
</svg>
